# xmcd CD database file
#
# Track frame offsets:
#	150
#	14266
#	33294
#	49291
#	69395
#	90501
#	106795
#	124015
#	141677
#	155927
#	170877
#	183752
#
# Disc length: 2642 seconds
#
# Revision: 1
# Processed by: cddbd v1.5.2PL0 Copyright (c) Steve Scherf et al.
# Submitted via: CDex 1.51
#
DISCID=a50a500c
DTITLE=Texarkana - First Ride
DYEAR=2007
DGENRE=Country
TTITLE0=Chasin' That Neon Rainbow
TTITLE1=Chattahoochee
TTITLE2=God Blessed Texas
TTITLE3=Gone Country
TTITLE4=Good Hearted Woman
TTITLE5=I Don't Even Know Your Name
TTITLE6=Livin' on Love
TTITLE7=Old Country
TTITLE8=San Antonio Nights
TTITLE9=Talkin' to Hank
TTITLE10=Tequila Sunrise
TTITLE11=Where Corn Don't Grow
EXTD=YEAR: 2007
EXTT0=
EXTT1=
EXTT2=
EXTT3=
EXTT4=
EXTT5=
EXTT6=
EXTT7=
EXTT8=
EXTT9=
EXTT10=
EXTT11=
PLAYORDER=
